#!OML:ASF I:\Actors\actors\Patient Classification 2\Patient 1\Session 1\actor1.ASF
:FULLY-SPECIFIED
:DEGREES
504
root -0.833403 18.0883 5.95147 -1.65581 1.60651 -7.00904
lowerback 4.23117 -3.52514 -4.50262
upperback 1.05386 -4.90871 -1.81782
thorax -1.06367 -2.44129 0.883855
lowerneck -18.34 -4.22253 -5.83058
upperneck 31.9638 -7.19627 8.0778
head 14.6471 -2.74637 3.02014
rclavicle 4.24654e-014 -3.18055e-014
rhumerus 57.0332 0.509888 1.09915
rradius 102.18
rwrist -18.8071
rhand 3.41707 -9.56582
rfingers 7.12502
rthumb 28.859 -37.3537
lclavicle 4.24654e-014 -3.18055e-014
lhumerus 88.5068 -64.8604 -7.06897
lradius 105.692
lwrist 1.95434
lhand -11.1364 -63.8873
lfingers 7.12502
lthumb 14.8891 -34.4423
rfemur 0 0 0
rtibia 0
rfoot 0 0
rtoes 0
lfemur 21.8166 -10.9447 -10.8565
ltibia -22.8673
lfoot -1.80324 20.6457
ltoes -7.81188
505
root -0.835197 18.0919 5.94665 -1.56514 1.71506 -6.92873
lowerback 4.17368 -3.51009 -4.60271
upperback 1.07979 -4.88796 -1.81442
thorax -0.997116 -2.43242 0.936235
lowerneck -18.3983 -4.22356 -5.84977
upperneck 31.8172 -7.19091 8.12888
head 14.5967 -2.73827 3.04079
rclavicle -3.39673e-014 -3.65764e-014
rhumerus 56.9289 0.887693 1.37072
rradius 102.27
rwrist -18.551
rhand 3.7036 -9.51627
rfingers 7.12502
rthumb 29.1327 -37.2571
lclavicle -3.39673e-014 -3.65764e-014
lhumerus 87.5478 -64.682 -5.97041
lradius 105.806
lwrist 1.27803
lhand -11.0871 -64.4511
lfingers 7.12502
lthumb 14.9366 -35.0096
rfemur 0 0 0
rtibia 0
rfoot 0 0
rtoes 0
lfemur 21.6467 -10.9876 -10.9138
ltibia -22.8289
lfoot -1.77227 20.6186
ltoes -7.62677
506
root -0.836994 18.0944 5.94084 -1.50304 1.83077 -6.87867
lowerback 4.22073 -3.50432 -4.65275
upperback 1.07064 -4.88553 -1.80899
thorax -1.02823 -2.43028 0.97283
lowerneck -18.4382 -4.1897 -5.86387
upperneck 31.6941 -7.13759 8.17856
head 14.5479 -2.70954 3.06978
rclavicle -3.25758e-014 2.54444e-014
rhumerus 56.8861 1.25068 1.6163
rradius 102.271
rwrist -18.3403
rhand 3.98454 -9.40592
rfingers 7.12502
rthumb 29.4009 -37.1
lclavicle -3.25758e-014 2.54444e-014
lhumerus 86.2257 -64.454 -4.34697
lradius 105.985
lwrist 1.29384
lhand -10.8839 -64.6469
lfingers 7.12502
lthumb 15.1323 -35.2201
rfemur 0 0 0
rtibia 0
rfoot 0 0
rtoes 0
lfemur 21.4938 -11.0243 -10.9425
ltibia -22.7834
lfoot -1.73518 20.585
ltoes -7.94851
507
root -0.839063 18.0961 5.93409 -1.46994 1.92242 -6.89936
lowerback 4.36879 -3.49936 -4.62372
upperback 1.02305 -4.88871 -1.7864
thorax -1.1602 -2.42847 0.992545
lowerneck -18.5336 -4.13637 -5.89526
upperneck 31.6942 -7.06547 8.24736
head 14.5673 -2.66986 3.1168
rclavicle -1.01132e-014 -7.95139e-015
rhumerus 56.8402 1.5613 1.84406
rradius 102.293
rwrist -18.1561
rhand 4.11616 -9.22208
rfingers 7.12502
rthumb 29.5266 -36.894
lclavicle -1.01132e-014 -7.95139e-015
lhumerus 84.5519 -64.1641 -2.21127
lradius 106.178
lwrist 2.17055
lhand -10.7365 -64.4751
lfingers 7.12502
lthumb 15.2743 -35.0591
rfemur 0 0 0
rtibia 0
rfoot 0 0
rtoes 0
lfemur 21.3771 -10.9914 -10.8862
ltibia -22.754
lfoot -1.67134 20.4909
ltoes -8.33184
508
root -0.84102 18.0981 5.92749 -1.43877 1.99306 -6.93876
lowerback 4.51142 -3.48565 -4.54938
upperback 0.967669 -4.87825 -1.77306
thorax -1.30247 -2.41972 0.977307
lowerneck -18.643 -4.09489 -5.89349
upperneck 31.7526 -7.01061 8.26842
head 14.614 -2.63924 3.13674
rclavicle -9.88954e-015 -2.8625e-014
rhumerus 56.736 1.77851 2.02776
rradius 102.334
rwrist -17.9272
rhand 4.33328 -9.02024
rfingers 7.12502
rthumb 29.7338 -36.6554
lclavicle -9.88954e-015 -2.8625e-014
lhumerus 82.6706 -63.7578 0.277077
lradius 106.34
lwrist 3.83149
lhand -11.0752 -63.98
lfingers 7.12502
lthumb 14.9481 -34.5394
rfemur 0 0 0
rtibia 0
rfoot 0 0
rtoes 0
lfemur 21.286 -10.9783 -10.8135
ltibia -22.7493
lfoot -1.58232 20.4182
ltoes -8.60256
509
root -0.841803 18.0995 5.92239 -1.40908 2.07256 -6.92911
lowerback 4.56611 -3.46408 -4.53605
upperback 0.956856 -4.85243 -1.75212
thorax -1.34468 -2.40584 0.994476
lowerneck -18.751 -4.07378 -5.89154
upperneck 31.7807 -6.963 8.23424
head 14.6445 -2.61935 3.13124
rclavicle 2.95195e-014 6.36111e-015
rhumerus 56.6536 1.88942 2.15036
rradius 102.38
rwrist -17.6484
rhand 4.81889 -8.91361
rfingers 7.12502
rthumb 30.1972 -36.465
lclavicle 2.95195e-014 6.36111e-015
lhumerus 80.6887 -63.1994 3.01118
lradius 106.543
lwrist 6.56844
lhand -11.2913 -62.5906
lfingers 7.12502
lthumb 14.7398 -33.1347
rfemur 0 0 0
rtibia 0
rfoot 0 0
rtoes 0
lfemur 21.2166 -10.9713 -10.8045
ltibia -22.7606
lfoot -1.49688 20.3449
ltoes -8.89102
510
root -0.841446 18.0994 5.91876 -1.39656 2.15633 -6.89252
lowerback 4.55382 -3.44307 -4.58755
upperback 0.991118 -4.82365 -1.69305
thorax -1.29451 -2.39283 1.07944
lowerneck -18.8383 -4.04967 -5.91163
upperneck 31.7428 -6.88284 8.16038
head 14.6359 -2.59449 3.11706
rclavicle 3.34207e-014 -2.54444e-014
rhumerus 56.6727 1.91259 2.15496
rradius 102.428
rwrist -17.4445
rhand 5.56443 -8.97525
rfingers 7.12502
rthumb 30.9082 -36.3942
lclavicle 3.34207e-014 -2.54444e-014
lhumerus 78.5267 -62.5177 6.05325
lradius 106.767
lwrist 10.8312
lhand -11.0966 -59.9413
lfingers 7.12502
lthumb 14.9274 -30.4992
rfemur 0 0 0
rtibia 0
rfoot 0 0
rtoes 0
lfemur 21.1737 -10.9131 -10.829
ltibia -22.7785
lfoot -1.44925 20.2276
ltoes -8.98626
511
root -0.84075 18.0985 5.91573 -1.41635 2.23179 -6.88892
lowerback 4.89641 -3.49628 -4.17255
upperback 0.788744 -4.90783 -1.92023
thorax -1.7451 -2.42517 0.656231
lowerneck -18.7701 -3.91189 -5.63527
upperneck 31.9064 -6.78816 8.14238
head 14.6731 -2.5235 3.08463
rclavicle -4.30245e-014 4.45278e-014
rhumerus 56.6499 2.24619 1.56246
rradius 102.41
rwrist -17.4325
rhand 6.30644 -8.97818
rfingers 7.12502
rthumb 31.6153 -36.2605
lclavicle -4.30245e-014 4.45278e-014
lhumerus 76.234 -62.1665 8.77314
lradius 107.101
lwrist 16.8733
lhand -11.1242 -56.272
lfingers 7.12502
lthumb 14.9009 -26.8279
rfemur 0 0 0
rtibia 0
rfoot 0 0
rtoes 0
lfemur 21.1641 -10.8817 -10.8196
ltibia -22.7969
lfoot -1.43766 20.1387
ltoes -8.83837
512
root -0.839149 18.0979 5.91269 -1.46683 2.28823 -6.9106
lowerback 5.08347 -3.49937 -3.98891
upperback 0.719574 -4.91664 -1.94351
thorax -1.93802 -2.4264 0.548062
lowerneck -18.7853 -3.84186 -5.55629
upperneck 32.0032 -6.69349 8.07262
head 14.7045 -2.48125 3.06243
rclavicle -4.57826e-014 -2.22639e-014
rhumerus 56.5557 2.26239 1.17423
rradius 102.376
rwrist -17.5426
rhand 6.79017 -8.86936
rfingers 7.12502
rthumb 32.0759 -36.06
lclavicle -4.57826e-014 -2.22639e-014
lhumerus 73.7556 -61.5604 12.0295
lradius 107.501
lwrist 24.4127
lhand -11.7548 -51.7471
lfingers 7.12502
lthumb 14.2933 -22.259
rfemur 0 0 0
rtibia 0
rfoot 0 0
rtoes 0
lfemur 21.1999 -10.8774 -10.7926
ltibia -22.8203
lfoot -1.44407 20.081
ltoes -8.59487
513
root -0.835946 18.0973 5.90949 -1.52981 2.28356 -6.94884
lowerback 5.20957 -3.48329 -3.83614
upperback 0.700635 -4.89387 -1.89849
thorax -2.03758 -2.41412 0.518322
lowerneck -18.8309 -3.80005 -5.57968
upperneck 32.0627 -6.60841 8.0278
head 14.7323 -2.45173 3.06548
rclavicle -5.3411e-014 -1.74931e-014
rhumerus 56.4585 2.12037 0.797669
rradius 102.312
rwrist -17.9135
rhand 7.13675 -9.03933
rfingers 7.12502
rthumb 32.4059 -36.163
lclavicle -5.3411e-014 -1.74931e-014
lhumerus 70.8229 -60.7919 15.875
lradius 107.877
lwrist 32.7225
lhand -13.1007 -46.7568
lfingers 7.12502
lthumb 12.9961 -17.1816
rfemur 0 0 0
rtibia 0
rfoot 0 0
rtoes 0
lfemur 21.2798 -10.9137 -10.7748
ltibia -22.8491
lfoot -1.46692 20.11
ltoes -8.32639
514
root -0.831357 18.097 5.90659 -1.59321 2.23562 -6.9996
lowerback 5.30674 -3.46947 -3.6286
upperback 0.71325 -4.86747 -1.84127
thorax -2.09195 -2.40172 0.467274
lowerneck -18.8941 -3.76985 -5.6413
upperneck 32.0631 -6.53596 8.02426
head 14.742 -2.42674 3.08813
rclavicle 1.50704e-014 2.22639e-014
rhumerus 56.362 1.8258 0.336234
rradius 102.222
rwrist -18.7579
rhand 7.27045 -9.52812
rfingers 7.12502
rthumb 32.5331 -36.6257
lclavicle 1.50704e-014 2.22639e-014
lhumerus 67.3841 -59.8864 20.3461
lradius 108.101
lwrist 41.0824
lhand -14.2848 -41.9873
lfingers 7.12502
lthumb 11.8545 -12.3429
rfemur 0 0 0
rtibia 0
rfoot 0 0
rtoes 0
lfemur 21.3693 -10.9542 -10.7537
ltibia -22.866
lfoot -1.5046 20.1728
ltoes -8.14071
515
root -0.824739 18.0976 5.90424 -1.64244 2.20691 -7.00276
lowerback 5.33114 -3.46 -3.45605
upperback 0.761802 -4.84345 -1.78691
thorax -2.06578 -2.392 0.426094
lowerneck -18.9573 -3.72041 -5.6366
upperneck 32.0072 -6.42528 7.94485
head 14.7157 -2.38771 3.07248
rclavicle 5.70264e-015 -1.90833e-014
rhumerus 56.2322 1.44268 -0.263623
rradius 102.123
rwrist -20.0201
rhand 7.51652 -10.2551
rfingers 7.12502
rthumb 32.7672 -37.3042
lclavicle 5.70264e-015 -1.90833e-014
lhumerus 63.7646 -58.8878 25.1174
lradius 108.101
lwrist 48.7665
lhand -14.7079 -37.858
lfingers 7.12502
lthumb 11.4465 -8.19044
rfemur 0 0 0
rtibia 0
rfoot 0 0
rtoes 0
lfemur 21.4265 -10.9477 -10.7812
ltibia -22.8562
lfoot -1.54536 20.1692
ltoes -8.10776
